<svg width="512" height="512" viewBox="0 0 512 512" fill="none" xmlns="http://www.w3.org/2000/svg">
<rect width="512" height="512" rx="80" fill="white"/>
<path d="M329.544 144.062C288.643 103.178 222.355 103.178 181.454 144.062C140.568 184.96 140.568 251.244 181.454 292.142L255.499 366.182L329.544 292.142C370.431 251.244 370.431 184.96 329.544 144.062ZM297.825 260.425C274.453 283.796 236.545 283.796 213.174 260.425C189.802 237.055 189.802 199.149 213.174 175.765C236.545 152.38 274.453 152.394 297.825 175.765C321.211 199.135 321.211 237.04 297.825 260.425Z" fill="#39ACB2"/>
<path d="M293.22 132.335C293.22 153.158 276.339 170.053 255.5 170.053C234.661 170.053 217.78 153.173 217.78 132.335C217.78 111.497 234.661 94.6168 255.5 94.6168C276.339 94.6168 293.22 111.497 293.22 132.335Z" fill="#052D54"/>
<path d="M357.622 112.601C357.622 96.3542 344.857 94.0373 344.857 94.0373C344.857 94.0373 329.774 92.296 329.774 112.601C329.774 147.959 308.172 164.753 288.283 172.726C279.202 176.367 270.481 178.165 264.307 179.043L257.615 185.749L267.272 230.519L255.499 242.29L243.741 230.519L253.398 185.749L246.692 179.058C240.532 178.165 231.796 176.367 222.715 172.726C202.812 164.753 181.224 147.959 181.224 112.601C181.224 92.296 166.142 94.0373 166.142 94.0373C166.142 94.0373 153.376 96.3542 153.376 112.601C153.376 127.539 151.909 168.006 204.035 196.082C208.583 198.528 213.533 200.888 218.945 203.119L211.303 252.436C212.713 254.249 214.253 256.019 215.922 257.689C237.783 279.548 273.23 279.548 295.091 257.689C296.76 256.019 298.285 254.249 299.71 252.436L292.068 203.119C297.465 200.888 302.43 198.528 306.978 196.082C359.104 168.02 357.636 127.553 357.636 112.601H357.622Z" fill="#052D54"/>
<path d="M201.378 383.143C202.141 383.143 202.803 383.416 203.364 383.977C203.882 384.538 204.156 385.186 204.156 385.92V433.568C204.127 440.245 201.464 445.929 196.183 450.649C190.901 455.37 184.54 457.73 177.099 457.73C169.659 457.73 163.226 455.355 157.915 450.592C152.634 445.843 150 440.115 150 433.395V429.15C150 427.653 150.734 426.732 152.202 426.43H167.083C168.551 426.746 169.285 427.653 169.285 429.15V433.453C169.285 435.582 170.033 437.41 171.544 438.95C173.084 440.461 174.912 441.209 177.056 441.209C179.201 441.209 181.071 440.461 182.611 438.95C184.108 437.41 184.871 435.582 184.871 433.453V391.835C184.842 390.295 184.281 389 183.187 387.949C182.942 387.704 182.698 387.503 182.453 387.316C181.748 386.827 181.402 386.193 181.402 385.431C181.402 384.797 181.633 384.265 182.093 383.805C182.554 383.344 183.086 383.114 183.72 383.114H201.392L201.378 383.143Z" fill="#052D54"/>
<path d="M252.742 380.566C263.406 380.566 272.488 384.337 280 391.892C287.556 399.404 291.326 408.484 291.326 419.148C291.326 429.811 287.556 438.892 280 446.404C272.488 453.945 263.406 457.729 252.742 457.729C242.078 457.729 232.997 453.959 225.485 446.404C217.943 438.892 214.158 429.811 214.158 419.148C214.158 408.484 217.929 399.404 225.485 391.892C232.997 384.337 242.078 380.566 252.742 380.566ZM252.742 439.122C258.01 439.122 262.529 437.165 266.27 433.251C269.969 429.365 271.826 424.674 271.826 419.148C271.826 413.622 269.969 408.916 266.27 405.002C262.529 401.116 258.024 399.188 252.742 399.188C247.461 399.188 242.956 401.131 239.214 405.002C235.516 408.916 233.659 413.636 233.659 419.148C233.659 424.659 235.516 429.365 239.214 433.251C242.956 437.165 247.461 439.122 252.742 439.122Z" fill="#052D54"/>
<path d="M358.319 421.826C360.104 424.373 360.996 427.712 360.996 431.842C360.996 439.181 358.78 444.88 354.333 448.938C349.9 452.953 343.295 454.968 334.516 454.968H302.12C301.357 454.968 300.71 454.709 300.177 454.176C299.616 453.615 299.343 452.967 299.343 452.233V392.008C299.343 390.44 298.781 389.116 297.659 388.022C297.414 387.777 297.17 387.547 296.925 387.346C296.22 386.885 295.874 386.266 295.874 385.46C295.874 384.827 296.105 384.295 296.565 383.834C297.026 383.374 297.558 383.144 298.191 383.144L304.006 383.201H334.717C343.237 383.201 349.483 384.813 353.426 388.022C357.341 391.231 359.298 395.851 359.298 401.866C359.327 405.78 358.507 408.773 356.837 410.831C355.153 412.889 353.124 414.602 350.706 415.969C353.988 417.336 356.52 419.293 358.305 421.84L358.319 421.826ZM317.591 411.292C317.591 411.68 317.735 412.011 318.009 412.285C318.282 412.573 318.599 412.702 318.944 412.702H332.573C334.875 412.702 336.502 412.184 337.452 411.134C338.358 410.083 338.819 408.529 338.819 406.471C338.819 404.543 338.373 403.046 337.509 401.967C336.602 400.844 334.962 400.283 332.587 400.283H318.958C318.613 400.283 318.296 400.427 318.023 400.7C317.735 400.974 317.606 401.319 317.606 401.693V411.292H317.591ZM338.718 435.828C339.869 434.504 340.445 432.806 340.445 430.748C340.445 428.69 339.869 426.978 338.718 425.711C337.567 424.488 335.782 423.884 333.364 423.884H318.944C318.599 423.884 318.282 424.028 318.009 424.301C317.721 424.574 317.591 424.891 317.591 425.251V436.476C317.591 436.864 317.735 437.166 318.009 437.411C318.282 437.699 318.599 437.828 318.944 437.828H333.249C335.739 437.828 337.552 437.166 338.704 435.828H338.718Z" fill="#052D54"/>
</svg>
