<svg width="212" height="372" viewBox="0 0 212 372" fill="none" xmlns="http://www.w3.org/2000/svg">
<path d="M26.4 145.6L15.2 136.8L0 147.2L4 163.2L20.8 174.4L32.8 172L68 196.8L38.4 161.6L26.4 115.6V145.6Z" fill="#D3AF95"/>
<path fill-rule="evenodd" clip-rule="evenodd" d="M68 196.8L38.4 161.6L26.4 115.6V85.6L42.4 77.967L113.6 44L164.8 79.2L166.4 141.6L118.4 200.8L68 196.8Z" fill="#F7D9C4"/>
<path d="M118.4 200.8L155.2 176L166.4 141.6L118.4 200.8Z" fill="#F7D9C4"/>
<path d="M8.8 140.8L28 148L40.8 116L92.8 86.4L117.6 63.2L146.4 90.4L164 108L166.4 141.6L180 117.6L176.8 91.2L152 40L63.2 24.8L13.6 86.4L8.8 140.8Z" fill="#53321B"/>
<path d="M60.8 65.6L116.8 51.2L158.4 70.4L176.8 90.4L178.4 80L153.6 35.2L93.6 0L60.8 65.6Z" fill="#344E41"/>
<path d="M8.8 141.6L26.4 93.6L15.2 52.8L2.4 92L8.8 141.6Z" fill="#588157"/>
<path d="M26.4 93.6L60.8 65.6L93.6 0L15.2 52.8L26.4 93.6Z" fill="#3A5A40"/>
<path d="M99.2 176C107.2 181.6 113.44 181.92 122.4 176.8" stroke="#742525" stroke-width="1.6" stroke-linecap="round"/>
<ellipse cx="81.5538" cy="135.681" rx="13.3444" ry="19.6242" transform="rotate(2.8711 81.5538 135.681)" fill="#F4F4F4"/>
<path d="M94.6925 139.101C94.4367 147.743 90.1619 154.665 85.1444 154.56C80.1269 154.456 76.2668 147.365 76.5226 138.722C76.7784 130.079 81.0532 123.157 86.0707 123.262C91.0882 123.367 94.9483 130.458 94.6925 139.101Z" fill="#15221B"/>
<ellipse cx="2.28452" cy="3.05134" rx="2.28452" ry="3.05134" transform="matrix(0.956488 0.291771 -0.331176 0.943569 79.17 124.339)" fill="white"/>
<ellipse cx="139.368" cy="133.892" rx="12.8312" ry="18.8694" transform="rotate(2.8711 139.368 133.892)" fill="#F4F4F4"/>
<path d="M151.997 136.558C151.78 145.211 147.778 152.13 143.058 152.011C138.338 151.893 134.688 144.782 134.905 136.129C135.122 127.476 139.124 120.557 143.844 120.675C148.564 120.794 152.215 127.905 151.997 136.558Z" fill="#15221B"/>
<ellipse cx="138.273" cy="124.658" rx="1.78101" ry="2.49341" transform="rotate(18.1242 138.273 124.658)" fill="white"/>
<ellipse cx="139.368" cy="133.892" rx="12.8312" ry="18.8694" transform="rotate(2.8711 139.368 133.892)" fill="#F4F4F4"/>
<path d="M151.997 136.558C151.78 145.211 147.778 152.13 143.058 152.011C138.338 151.893 134.688 144.782 134.905 136.129C135.122 127.476 139.124 120.557 143.844 120.675C148.564 120.794 152.215 127.905 151.997 136.558Z" fill="#15221B"/>
<ellipse cx="138.583" cy="125.343" rx="2.288" ry="3.048" transform="rotate(18.1242 138.583 125.343)" fill="white"/>
<path d="M132.8 105.6L144.8 106.4L155.2 108.8" stroke="#53331B" stroke-width="4.8" stroke-linecap="round"/>
<path d="M60.8 110.4L76.8 107.2H89.6" stroke="#53321B" stroke-width="4.8" stroke-linecap="round"/>
<path d="M117.6 370.4L136 361.6L135.006 346.4L117.6 353.6H101.654L102.4 370.828L117.6 370.4Z" fill="#744625"/>
<path d="M40 366.4L60.8 372L94.4 371.054L93.7972 353.6H60.8L41.8082 348.8L40 366.4Z" fill="#744625"/>
<path d="M41.8082 348.8L60.8 353.6H93.7972L91.8 284L43.3245 333.6L41.8082 348.8Z" fill="#588157"/>
<path d="M101.654 353.6H117.6L135.006 346.4L133.226 319.2L99.2 288.8L101.654 353.6Z" fill="#588157"/>
<path d="M53.6 200L40 207.2L12.8 252.8L18.4 280.8L38.4 310.4L41.8082 271.2L56.4 251.6L44 247.2L50.4 235.2L53.6 200Z" fill="#3A5A40"/>
<path d="M151.2 236L132.8 205.6L121.6 203.165L99.2 231.2V260.8L127.2 257.6L128.243 245.6L152 268.8L161.6 236.594L151.2 236Z" fill="#344E41"/>
<path d="M99.2 260.8V277.6V288.8L133.226 319.2L130.4 276L127.2 257.6L99.2 260.8Z" fill="#3A5A40"/>
<path d="M51.2 283.2L56.4 275.164L61.6 267.127L67.2471 258.4L68.8 256L56.4 251.6L41.8082 271.2L38.4 310.4L45.2 314.8L52 319.2L51.2 283.2Z" fill="#744625"/>
<path d="M179.2 237.6L161.6 236.594L152 268.8V294.084L164.8 304.8V277.6L168.8 264.8L170.349 260.8L177.472 242.4L179.2 237.6Z" fill="#744625"/>
<path d="M114.4 201.6L96 220.8L66.4 193.6L60 196.8L91.8 225.6V260.8V278.4V284L93.7972 353.6L94.4 371.054L102.4 370.828L101.654 353.6L99.2 288.8V277.6V260.8V231.2L121.6 203.165L114.4 201.6Z" fill="#744625"/>
<path d="M130.4 276L152 294.084V268.8L128.243 245.6L127.2 257.6L130.4 276Z" fill="#588157"/>
<path d="M68.8 286.4V260.8V258.52L67.2471 258.4L61.6 267.127L56.4 275.164L64 286.4H68.8Z" fill="#F7D9C4"/>
<path fill-rule="evenodd" clip-rule="evenodd" d="M52 319.2L68.8 289.6V286.4H75.2L85.6 274.4L84 266.4L79.0222 260.8H91.8V278.4V284L43.3245 333.6L45.2 314.8L52 319.2Z" fill="#3A5A40"/>
<path fill-rule="evenodd" clip-rule="evenodd" d="M68.8 258.52V256L56.4 251.6L52.8 250.323L50.4 235.2L53.6 200L60 196.8L91.8 225.6V260.8H79.0222L77.6 259.2L68.8 258.52Z" fill="#344E41"/>
<path d="M85.6 274.4L84 266.4L79.0222 260.8H68.8V286.4H75.2L85.6 274.4Z" fill="#F7D9C4"/>
<path d="M68.8 258.52V260.8H79.0222L77.6 259.2L68.8 258.52Z" fill="#F7D9C4"/>
<path d="M68.8 256L67.2471 258.4L68.8 258.52V256Z" fill="#363636"/>
<path d="M52 319.2L68.8 289.6V286.4H64L56.4 275.164L51.2 283.2L52 319.2Z" fill="#344E41"/>
<path d="M179.2 237.6L177.472 242.4L179.2 242.469V237.6Z" fill="#344E41"/>
<path d="M179.2 242.469L178.4 257.6L177.887 266.009L197.6 276.8L212 261.6L211.2 251.2L189.6 246.4L192.8 244L191.2 239.2L179.2 242.469Z" fill="#F7D9C4"/>
<path d="M164.8 277.6V304.8L177.472 272.8L177.887 266.009L170.349 260.8L168.8 264.8L164.8 277.6Z" fill="#344E41"/>
<path d="M178.4 257.6L179.2 242.469L177.472 242.4L170.349 260.8L177.887 266.009L178.4 257.6Z" fill="#F7D9C4"/>
</svg>
