<svg width="196" height="372" viewBox="0 0 196 372" fill="none" xmlns="http://www.w3.org/2000/svg">
<path d="M75.5865 192.402L50.0638 210.072H147.247L126.632 192.402H75.5865Z" fill="#18263D"/>
<path d="M50.0638 210.072V227.741H147.247V210.072H50.0638Z" fill="#3B485C"/>
<path d="M50.0638 260.136V273.879C51.6344 274.865 115.507 274.29 147.247 273.879V260.136V227.741H50.0638V260.136Z" fill="#576375"/>
<path d="M92.2745 300.383H106.018L110.599 297.438L147.247 273.879C115.507 274.29 51.6344 274.865 50.0638 273.879L87.5844 297.438L92.2745 300.383Z" fill="#18263D"/>
<path d="M87.5844 297.438L50.0638 273.879L40.8654 319.034L60.8619 329.832L77.5498 326.887L87.5844 297.438Z" fill="#576375"/>
<path d="M147.247 273.879L110.599 297.438L113.871 322.961L135.467 326.887L155.609 319.034L147.247 273.879Z" fill="#576375"/>
<path d="M106.018 300.383L104.054 331.796L113.871 322.961L110.599 297.438L106.018 300.383Z" fill="white"/>
<path d="M92.2745 331.796V300.383L87.5844 297.438L77.5498 326.887L92.2745 331.796Z" fill="white"/>
<path d="M39.2657 326.887L44.1739 334.741L85.403 337.686L92.2745 331.796L77.5498 326.887L60.8619 329.832L40.8654 319.034L39.2657 326.887Z" fill="#18263D"/>
<path d="M104.054 331.796L113.871 337.686H150.191L157.063 326.887L155.609 319.034L135.467 326.887L113.871 322.961L104.054 331.796Z" fill="#18263D"/>
<path d="M150.191 337.686H113.871V350.447L116.816 356.337L124.669 346.52H135.467L160.99 368.116L159.026 360.263L147.247 350.447L150.191 337.686Z" fill="#3B485C"/>
<path d="M85.403 337.686L44.1739 334.741L46.1372 350.447L39.2657 358.3L37.3024 368.116L57.917 346.52H71.66L79.5131 358.3L82.458 350.447L85.403 337.686Z" fill="#3B485C"/>
<path d="M141.357 371.061L160.99 368.116L135.467 346.52H124.669L116.816 356.337L117.797 358.3L119.761 365.172L141.357 371.061Z" fill="#18263D"/>
<path d="M57.917 346.52L37.3024 368.116L57.917 371.061L79.5131 368.116V358.3L71.66 346.52H57.917Z" fill="#18263D"/>
<path fill-rule="evenodd" clip-rule="evenodd" d="M43.1923 261.117L44.4106 296.969L50.8408 281.25L51.0454 280.75H86.3846V261.117H49.0822H43.1923Z" fill="#3B485C"/>
<path fill-rule="evenodd" clip-rule="evenodd" d="M151.173 299.401L160.008 261.117H148.228H109.944V280.75H144.302L151.173 299.401Z" fill="#3B485C"/>
<path d="M165.898 277.805L160.008 261.117L151.173 299.401L161.971 295.475L165.898 277.805Z" fill="#18263D"/>
<path d="M31.4126 261.117L29.4493 299.401L42.2106 302.346L44.4106 296.969L43.1923 261.117H31.4126Z" fill="#18263D"/>
<path d="M86.3846 261.117V280.75H109.944V261.117H86.3846Z" fill="#18263D"/>
<path d="M160.008 190.439L180.622 225.778V243.448L175.387 235.595L172.769 231.668L151.173 198.292L148.228 188.966L160.008 190.439Z" fill="#3B485C"/>
<path d="M151.173 198.292L172.769 231.668L175.387 235.595L165.898 242.466L148.228 243.448L115.016 195.347L116.816 184.549L132.522 175.714L142.338 184.549L141.357 179.641H145.283L148.228 188.966L151.173 198.292Z" fill="#576375"/>
<path d="M141.357 245.411L113.871 202.219L115.016 195.347L148.228 243.448L165.898 242.466L175.387 235.595L180.622 243.448L168.843 254.246H151.173L141.357 245.411Z" fill="#18263D"/>
<path d="M34.3575 190.439L13.743 225.778V243.448L18.9784 235.595L21.5961 231.668L43.1923 198.292L46.1372 188.966L34.3575 190.439Z" fill="#3B485C"/>
<path d="M43.1923 198.292L21.5961 231.668L18.9784 235.595L28.4676 242.466L46.1372 243.448L79.3495 195.347L77.5498 184.549L61.8435 175.714L52.0271 184.549L53.0087 179.641H49.0822L46.1372 188.966L43.1923 198.292Z" fill="#576375"/>
<path d="M53.0087 245.411L80.4948 202.219L79.3495 195.347L46.1372 243.448L28.4676 242.466L18.9784 235.595L13.743 243.448L25.5227 254.246H43.1923L53.0087 245.411Z" fill="#18263D"/>
<path d="M21.5233 141.047L25.1868 162.112L56.327 191.421H137.841L172.645 162.112L176.308 141.047L180.43 99.3738L175.392 57.7009L98.4579 33.8878L23.3551 63.1963L18.3177 102.579L21.5233 141.047Z" fill="#F7D9C4"/>
<path d="M193.252 103.495L178.598 116.318L174.019 152.037H182.262L196 119.065L193.252 103.495Z" fill="#F7D9C4"/>
<path d="M19.2336 114.486L2.74766 103.495L0 119.065L13.7383 152.037L22.8972 151.121L19.4764 116.913L19.2336 114.486Z" fill="#F7D9C4"/>
<path d="M178.598 116.318L185.925 36.6355L141.047 9.15888L159.294 85.6066L178.598 116.318Z" fill="#576375"/>
<path fill-rule="evenodd" clip-rule="evenodd" d="M35.7196 84.2617L70.5234 73.271L87.0093 84.2617L107.159 92.5047L102.579 78.7664L132.804 87.9252L130.056 74.1869L158.449 84.2617L159.294 85.6066L141.047 9.15888L65.9439 0L35.7196 84.2617Z" fill="#18263D"/>
<path d="M19.2336 114.486L35.7196 84.2617L65.9439 0L8.24299 32.0561L19.2336 114.486Z" fill="#3B485C"/>
<ellipse cx="14.2893" cy="21.0136" rx="14.2893" ry="21.0136" transform="matrix(-0.998745 0.0500892 0.0500892 0.998745 149.796 109.073)" fill="#F4F4F4"/>
<path d="M122.513 133.744C122.754 143.381 127.211 151.086 132.468 150.954C137.724 150.822 141.789 142.903 141.547 133.267C141.305 123.63 136.848 115.925 131.592 116.057C126.336 116.189 122.271 124.108 122.513 133.744Z" fill="#06060D"/>
<ellipse cx="2.36297" cy="3.30816" rx="2.36297" ry="3.30816" transform="matrix(-0.950385 0.311077 0.311077 0.950385 138.817 117.237)" fill="white"/>
<ellipse cx="62.9859" cy="130.776" rx="14.2893" ry="21.0136" transform="rotate(2.8711 62.9859 130.776)" fill="#F4F4F4"/>
<path d="M78.2723 133.744C78.0306 143.381 73.5736 151.086 68.3173 150.954C63.0611 150.822 58.996 142.903 59.2377 133.267C59.4795 123.63 63.9365 115.925 69.1928 116.057C74.449 116.189 78.5141 124.108 78.2723 133.744Z" fill="#06060D"/>
<ellipse cx="61.7674" cy="120.493" rx="1.98358" ry="2.77701" transform="rotate(18.1242 61.7674 120.493)" fill="white"/>
<path d="M125.618 92.6545C130.964 96.5151 144.327 104.236 155.018 104.236" stroke="black" stroke-width="5.34546" stroke-linecap="round"/>
<path d="M73.9455 92.6545C68.6 96.5151 55.2364 104.236 44.5455 104.236" stroke="black" stroke-width="5.34546" stroke-linecap="round"/>
<path d="M86.4182 170.164C92.0606 167.491 105.127 163.571 112.255 169.273" stroke="black" stroke-width="5.34546" stroke-linecap="round"/>
</svg>
