<svg width="251" height="317" viewBox="0 0 251 317" fill="none" xmlns="http://www.w3.org/2000/svg">
<path d="M128.222 202.605L133.181 235.9L165.767 230.233L198.062 215.434L191.979 192.687H206.147L223.148 211.814L221.023 225.982L228.816 233.066L238.733 232.358L245.818 226.691L248.651 213.939L234.483 185.603L217.481 167.893L167.893 157.267L128.222 162.225L119.013 167.893L106.97 178.519L53.839 217.481L67.2987 230.233L77.2165 221.732L96.3435 206.855L128.222 202.605Z" fill="#EBDFB9"/>
<path d="M197.646 289.03L211.814 281.946L218.898 280.014V265.653L213.939 253.61H208.272L198.062 215.434L165.767 230.233L133.181 235.9L115.47 262.819L104.844 274.154L106.97 281.946L116.887 285.488L133.181 293.989L163.642 243.692L179.227 274.154L197.646 289.03Z" fill="#754930"/>
<path d="M242.984 262.819L234.483 253.61H213.939L218.898 265.653V280.014L227.399 277.696L238.733 284.78L242.984 281.946V262.819Z" fill="#451D15"/>
<path d="M115.47 316.658L133.181 293.989L116.887 285.488L106.97 281.946L99.8855 291.864L92.093 293.989L85.7174 301.073L99.8855 311.699L115.47 316.658Z" fill="#451D15"/>
<path d="M199.771 211.106L191.27 215.356L189.454 212.522L183.478 224.565L162.934 231.649L138.14 230.941L157.267 247.234L149.474 257.86L179.936 240.15L164.351 276.279L191.27 269.903L194.104 222.44L202.605 216.773H213.231L210.397 204.021L199.771 211.106Z" fill="#BD3827"/>
<path d="M131.055 187.728L132.472 155.141L126.805 160.1L121.846 179.936V201.188L123.87 218.19L128.93 230.941L135.306 237.317L120.446 239.442L107.678 261.403L121.846 260.694L138.14 268.487L164.351 276.279L179.936 240.15L149.474 257.86L157.267 247.234L138.14 230.941L162.934 231.649L183.478 224.565L189.454 212.522L173.56 187.728V165.767L179.227 157.975V153.016H172.143L162.225 155.141L160.809 186.311L144.515 189.145L131.055 187.728Z" fill="#E56027"/>
<path d="M123.87 218.19L125.388 230.941L120.446 239.442L135.306 237.317L128.93 230.941L123.87 218.19Z" fill="#BD3827"/>
<path d="M219.606 225.982L202.605 216.773L213.231 234.483L219.606 225.982Z" fill="#AC4C3E"/>
<path d="M24.6309 182.681L18.4152 177.102L12.1995 183.478L19.1922 189.853L24.6309 182.681Z" fill="#797075"/>
<path d="M0.545055 178.696L9.09165 186.665L12.1995 183.478L18.4152 177.102L21.5231 173.914L13.7534 164.351L0.545055 178.696Z" fill="#939194"/>
<path d="M46.5916 150.182C39.7436 152.072 25.7644 155.991 24.6309 156.558L28.8814 169.31L35.3287 167.59L43.7579 165.342L50.1336 163.642L46.5916 150.182Z" fill="#8D9296"/>
<path d="M37.3823 179.227L45.8832 177.81L43.7579 165.342L35.3287 167.59L37.3823 179.227Z" fill="#6E6270"/>
<path d="M76.1348 171.976L56.5093 168.601L36.8838 171.976L19.6255 181.694L6.81585 196.583L0 214.847V234.283H1.25347H63.5934L93.3931 181.694L76.1348 171.976Z" fill="#9494A0"/>
<path d="M106.203 196.583L93.3931 181.694L63.5934 234.283H1.25347H0L6.81585 252.547L19.6255 267.436L36.8838 277.154L56.5093 280.53L76.1348 277.154L93.3931 267.436L106.203 252.547L113.019 234.283V214.847L106.203 196.583Z" fill="#9494A0"/>
<path fill-rule="evenodd" clip-rule="evenodd" d="M0 234.283L6.81585 252.547L19.6255 267.436L36.8838 277.154L56.5093 280.53L76.1348 277.154L93.3931 267.436L106.203 252.547L113.019 234.283V214.847L106.203 196.583L93.3931 181.694L63.5934 234.283H1.25347H0Z" fill="#767F8A"/>
<path d="M59.3429 179.936L78.0717 183.794L93.5621 194.702L103.136 210.774L105.137 229.23L99.2204 246.88L86.4084 260.671L68.9165 268.22H49.7693L32.2775 260.671L19.4655 246.88L13.5486 229.23L15.5501 210.774L25.1237 194.702L40.6141 183.794L59.3429 179.936Z" fill="#E7E9DB"/>
<path d="M81.3036 201.188L54.3841 222.44L60.7597 228.107L81.3036 201.188Z" fill="#AB4E3C"/>
<path d="M56.5093 219.606L60.6075 221.098L62.7881 224.875L62.0308 229.17L58.6899 231.973H54.3287L50.9878 229.17L50.2305 224.875L52.4111 221.098L56.5093 219.606Z" fill="#545C71"/>
<path d="M211.106 202.626L235.997 182.769L250.776 213.746L248.443 228.837L239.108 234.397L228.218 235.191L219.662 228.043L221.218 211.363L211.106 202.626Z" fill="#491716"/>
<path d="M78.6333 150.891L100.594 167.184L123.971 169.309L160.1 172.143L194.812 150.891V113.345L201.188 77.2165L167.893 61.6315L106.261 52.4222L68.0072 69.424L78.6333 150.891Z" fill="#F8D4B4"/>
<path d="M109.803 148.057C114.29 145.932 124.68 142.815 130.347 147.349" stroke="black" stroke-width="4.25045" stroke-linecap="round"/>
<path d="M130.347 99.1771C130.914 99.7438 132.945 101.302 133.889 102.011L159.392 85.0089L155.141 79.3417L130.347 99.1771Z" fill="#511A20"/>
<path d="M104.844 99.1771L102.011 103.428L75.0912 84.3005L80.7585 77.9249L104.844 99.1771Z" fill="#511A20"/>
<path d="M62.3399 123.971L75.0912 144.515L78.6333 149.474L71.5492 94.2182L71.2082 90.9189L63.7567 91.3846L60.9231 111.22L62.3399 123.971Z" fill="#542B27"/>
<path d="M167.184 171.435L202.605 157.267L204.021 156.617L190.562 150.891L160.809 171.435H167.184Z" fill="#58473F"/>
<path d="M109.095 88.551L136.723 59.5063L89.2594 60.9022L62.3399 91.3846H63.7567L71.2082 90.9189L109.095 88.551Z" fill="#E4672C"/>
<path d="M88.551 60.9231L60.9231 69.424L46.7549 84.3005L45.3381 87.8426L48.1717 91.3846H62.3399L89.2594 60.9022L88.551 60.9231Z" fill="#E5622E"/>
<path d="M186.311 75.7996L167.184 65.8819L136.723 59.5063L109.095 88.551L160.809 84.3005L189.145 80.9356L186.311 75.7996Z" fill="#DE5027"/>
<path d="M209.689 18.4186L169.309 0L142.39 20.5438L136.723 59.5063L167.184 65.8819L186.311 75.7996L215.356 58.0894L213.939 24.8517L209.689 18.4186Z" fill="#E6602D"/>
<path d="M169.309 0H120.429L96.3435 25.5027L89.2594 60.9022L136.723 59.5063L142.39 20.5438L169.309 0Z" fill="#F7A132"/>
<path d="M63.7567 53.839L60.9231 69.424L88.551 60.9231L89.2594 60.9022L96.3435 25.5027L120.429 0L82.1753 22.6691L63.7567 53.839Z" fill="#E75F2F"/>
<path d="M197.646 96.3435L190.562 150.891L211.106 135.306L215.356 61.6315V58.0894L186.311 75.7996L189.145 80.9356L197.646 96.3435Z" fill="#CE432E"/>
<path d="M238.025 87.8426L235.9 58.0894L213.939 24.8517L215.356 58.0894V61.6315L211.106 135.306L190.562 150.891L204.021 156.617L219.606 149.474L234.483 117.596L238.025 87.8426Z" fill="#993234"/>
<ellipse cx="89.2594" cy="118.304" rx="12.7513" ry="20.5438" fill="#D9D9D9"/>
<path d="M101.566 117.867C101.811 128.486 97.6694 137.211 92.314 137.356C86.9587 137.501 82.4181 129.011 82.1723 118.392C81.9265 107.774 86.0686 99.048 91.424 98.9031C96.7793 98.7581 101.32 107.249 101.566 117.867Z" fill="#291813"/>
<ellipse cx="2.83971" cy="4.25314" rx="2.83971" ry="4.25314" transform="matrix(0.959157 0.282873 -0.244483 0.969654 84.1319 100.6)" fill="white"/>
<ellipse cx="15.585" cy="20.5438" rx="15.585" ry="20.5438" transform="matrix(-1 0 0 1 167.184 96.3435)" fill="#D9D9D9"/>
<path d="M136.558 116.45C136.258 127.069 141.32 135.794 147.866 135.939C154.411 136.084 159.961 127.594 160.261 116.975C160.562 106.357 155.499 97.6312 148.954 97.4862C142.408 97.3412 136.859 105.832 136.558 116.45Z" fill="#291813"/>
<path d="M139.281 101.701C138.125 103.98 138.604 106.661 140.352 107.689C142.1 108.717 144.454 107.703 145.61 105.425C146.767 103.146 146.287 100.465 144.54 99.4373C142.792 98.4091 140.438 99.4228 139.281 101.701Z" fill="white"/>
</svg>
