<svg width="181" height="360" viewBox="0 0 181 360" fill="none" xmlns="http://www.w3.org/2000/svg">
<path d="M75.2119 244.7L76.9056 341.803L111.086 339.472L125.26 331.704L86.2275 274.219L75.2119 244.7Z" fill="#68357A"/>
<path d="M81.5665 217.511L74.5751 208.189L75.2119 244.7L86.2275 274.219L125.26 331.704L128.953 337.142L135.167 334.922L150.704 329.373L161.579 320.052L181 314.614V284.318L167.017 266.451L146.154 257.129L128.953 248.584L113.416 234.601L135.167 240.815L141.382 237.708L147.597 234.601L139.828 217.511L135.167 200.421L135.799 190.322L135.944 187.991H128.953L124.292 180.223L99.4335 199.644L94.7726 215.957L81.5665 217.511Z" fill="#9D6CA4"/>
<path d="M135.167 240.815L113.416 234.601L128.953 248.584L146.154 257.129L167.017 266.451L141.382 237.708L135.167 240.815Z" fill="#814794"/>
<path d="M139.828 217.511L147.597 234.601L152.258 201.974L139.828 217.511Z" fill="#533669"/>
<path d="M135.167 200.421L139.828 217.511L152.258 201.974L146.154 184.884L139.828 190.322H135.799L135.167 200.421Z" fill="#F9D6B6"/>
<path d="M152.258 201.974L158.472 193.429L163.91 191.876L165.464 184.884L161.579 173.232L147.597 166.24L144.489 171.678L147.597 180.223L146.154 184.884L152.258 201.974Z" fill="#F9D6B6"/>
<path d="M144.489 180.223L138.275 171.678L135.944 187.991L135.799 190.322H139.828L146.154 184.884L144.489 180.223Z" fill="#533669"/>
<path d="M124.292 180.223L128.953 187.991H135.944L138.275 171.678H117.646L124.292 180.223Z" fill="#876296"/>
<path d="M72.2447 203.528L66.8069 208.189L65.9594 217.511L74.5751 208.189L81.5665 217.511L94.7726 215.957L99.4335 199.644L124.292 180.223L117.646 171.678L113.416 166.24L92.4421 182.554L72.2447 199.644V203.528Z" fill="#C593C8"/>
<path d="M66.8069 208.189L72.2447 203.528V199.644V190.322L65.2532 182.554V171.678L60.5923 167.794H56.7082L55.1545 182.554L47.3863 198.09L45.8326 203.528L52.0472 217.511L66.8069 208.189Z" fill="#F9D6B6"/>
<path d="M25.6352 218.288L24.8584 222.172L30.1019 217.511L25.6352 218.288Z" fill="#652C71"/>
<path d="M52.0472 166.24L23.3047 203.528L12.4292 226.056L21.7511 246.253L40.3949 250.137L63.6996 242.369L52.0472 217.511L45.8326 203.528L30.1019 217.511L24.8584 222.172L25.6352 218.288L30.1019 217.511L45.8326 203.528L47.3863 198.09L55.1545 182.554L56.7082 167.794H60.5923L65.2532 171.678V182.554L72.2447 190.322V199.644L92.4421 182.554L113.416 166.24H52.0472Z" fill="#96679E"/>
<path fill-rule="evenodd" clip-rule="evenodd" d="M63.6996 242.369L36.5963 281.987L30.2962 334.811L48.9399 340.055L55.1545 341.803H74.5751H76.9056L75.2119 244.7L74.5751 208.189L65.9594 217.511L63.6996 242.369Z" fill="#9E6DA4"/>
<path d="M63.6996 242.369L40.3949 250.137L36.5963 281.987L63.6996 242.369Z" fill="#7C4392"/>
<path d="M52.0472 217.511L63.6996 242.369L65.9594 217.511L66.8069 208.189L52.0472 217.511Z" fill="#63316E"/>
<path d="M128.953 337.142L125.26 331.704L111.086 339.472V347.24L107.979 351.901V358.116L115.747 359.67L126.622 355.785L138.275 347.24L135.167 334.922L128.953 337.142Z" fill="#5E3A46"/>
<path d="M74.5751 341.803H55.1545L48.9399 340.055L45.8326 347.24L40.3949 348.794L38.8412 358.116L56.7082 359.67L72.2447 353.455L74.5751 341.803Z" fill="#5E3A46"/>
<path d="M129.73 44.279L121.766 55.1545L161.322 107.979L154.588 80.0129L129.73 44.279Z" fill="#93639D"/>
<path d="M20.9742 51.2704L47.3863 41.1717L121.185 54.3777L121.766 55.1545L129.73 44.279L54.3777 23.3047L23.9009 37.2876L20.9742 51.2704Z" fill="#CC9DCB"/>
<path d="M140.605 128.953L157.695 110.309L167.794 116.621L161.322 107.979L121.766 55.1545L121.185 54.3777L47.3863 41.1717L58.2618 48.1631L97.103 66.8069L132.837 80.0129L140.605 128.953Z" fill="#653161"/>
<path d="M20.9742 51.2704L8.54506 56.7082L1.16524 69.1373L2.33047 82.3434L20.9742 51.2704Z" fill="#653161"/>
<path d="M8.54506 56.7082L20.9742 51.2704L23.9009 37.2876L12.4292 44.279L0 55.9313L1.16524 69.1373L8.54506 56.7082Z" fill="#9666A2"/>
<path d="M2.33047 82.3434L4.66094 125.845V154.588L31.8498 175.562L67.5837 181.777L100.21 178.67L130.506 163.91L139.828 149.927H157.695L167.794 139.828L170.124 118.077L167.794 116.621L157.695 110.309L140.605 128.953L132.837 80.0129L97.103 66.8069L58.2618 48.1631L47.3863 41.1717L20.9742 51.2704L2.33047 82.3434Z" fill="#F9D1B8"/>
<path d="M167.794 116.621L174.785 89.3348L167.794 49.7167L130.506 17.867L129.73 44.279L154.588 80.0129L161.322 107.979L167.794 116.621Z" fill="#703B83"/>
<path d="M130.506 17.867L76.1288 0L27.9657 17.867L23.9009 37.2876L54.3777 23.3047L129.73 44.279L130.506 17.867Z" fill="#7E5591"/>
<path d="M27.9657 17.867L0 55.9313L12.4292 44.279L23.9009 37.2876L27.9657 17.867Z" fill="#835B8C"/>
<circle cx="99.4335" cy="110.309" r="34.1803" fill="#EBD8CA"/>
<ellipse cx="25.7344" cy="114.193" rx="14.8588" ry="22.5279" fill="#D9D9D9"/>
<path d="M37.5106 114.302C37.8021 125.946 32.8897 135.515 26.5384 135.674C20.1872 135.833 14.8021 126.522 14.5106 114.878C14.2191 103.234 19.1316 93.6659 25.4829 93.5069C31.8341 93.3479 37.2192 102.658 37.5106 114.302Z" fill="#06060D"/>
<ellipse cx="21.3467" cy="98.647" rx="2.39658" ry="3.35522" transform="rotate(15.2531 21.3467 98.647)" fill="white"/>
<ellipse cx="94.6073" cy="113.416" rx="15.3712" ry="23.3047" fill="#D9D9D9"/>
<path d="M106.682 113.476C106.984 125.521 101.902 135.42 95.3319 135.584C88.7616 135.749 83.1909 126.117 82.8893 114.071C82.5878 102.026 87.6696 92.1278 94.2399 91.9633C100.81 91.7988 106.381 101.43 106.682 113.476Z" fill="#06060D"/>
<ellipse cx="90.0682" cy="97.3341" rx="2.47923" ry="3.47092" transform="rotate(15.2531 90.0682 97.3341)" fill="white"/>
<path d="M118.854 76.6719L133.071 90.8887L138.275 110.309L133.071 129.73L128.091 134.708L165.325 188.325L165.777 188.976L165.118 189.415L155.796 195.629L155.167 196.049L154.731 195.431L118.462 144.051L99.4331 149.15L80.0132 143.946L65.7964 129.73L60.5923 110.309L65.7964 90.8887L80.0132 76.6719L99.4331 71.4678L118.854 76.6719ZM82.3433 80.7081L69.8325 93.2188L65.2534 110.309L69.8325 127.399L82.3433 139.91L99.4331 144.489L116.524 139.91L129.035 127.399L133.614 110.309L129.035 93.2188L116.524 80.7081L99.4331 76.129L82.3433 80.7081Z" fill="#695175"/>
<path d="M143.712 172.455L137.498 174.009L138.275 183.33H143.712L153.811 196.536L167.017 187.991V178.67L160.026 166.24L149.927 163.133L143.712 168.571V172.455Z" fill="#F9D6B6"/>
<path d="M15.5365 76.9056L24.8584 73.0215L33.4035 71.4678" stroke="#653161" stroke-width="6.21459" stroke-linecap="round"/>
<path d="M87.0043 70.1437L97.0862 70.7265L105.45 73.0654" stroke="#653161" stroke-width="6.21459" stroke-linecap="round"/>
<path fill-rule="evenodd" clip-rule="evenodd" d="M59.0611 155.229L54.3078 153.187L50.3711 156.544L49.5571 163.333L50.9498 166.456L55.1545 163.133L61.3691 160.404L59.0611 155.229Z" fill="#832A22"/>
<path d="M61.0325 168.264L61.8465 161.475L61.3691 160.404L55.1545 163.133L50.9498 166.456L52.3425 169.578L57.0958 171.621L61.0325 168.264Z" fill="#BA7A6E"/>
</svg>
