<svg width="290" height="268" viewBox="0 0 290 268" fill="none" xmlns="http://www.w3.org/2000/svg">
<path d="M179.103 184.038L154.423 190.384L143.141 204.487L138.91 222.115L135.385 233.397L147.249 239.743L163.59 248.484L165.705 249.615L173.462 249.369L191.09 248.809L210.128 248.205L198.846 208.718L216.474 217.179L229.872 210.128L239.204 206.602L236.342 190.384L224.936 191.795L210.128 191.09L196.026 188.974L184.744 186.859L179.103 184.038Z" fill="#02B9B0"/>
<path d="M210.128 248.205L213.654 225.641H222.115L228.462 217.884L236.923 218.59L240.449 213.654L239.578 208.718L239.204 206.602L229.872 210.128L216.474 217.179L198.846 208.718L210.128 248.205Z" fill="#016C67"/>
<path d="M274.295 198.141L248.205 146.667L234.103 136.481L206.603 164.295L218.59 182.628H234.974L236.342 190.384L239.204 206.602L239.578 208.718H248.122H256.667L266.538 202.795L274.295 198.141Z" fill="#02B9B0"/>
<path d="M165.705 133.974L148.782 110L144.551 130.449L135.385 148.077L130.449 149.487L155.128 161.474L180.513 160.769L179.573 176.282L185.449 179.102L196.026 181.218L208.013 182.628L190.385 143.141V131.071L165.705 133.974Z" fill="#02B9B0"/>
<path d="M148.782 110L131.154 117.051L130.449 149.487L135.385 148.077L144.551 130.449L148.782 110Z" fill="#016C67"/>
<path d="M190.385 131.071V143.141L208.013 182.628L196.026 181.218L185.449 179.102L179.573 176.282L179.103 184.038L184.744 186.859L196.026 188.974L210.128 191.09L224.936 191.795L236.342 190.384L234.974 182.628H218.59L206.603 164.295L234.103 136.481L227.051 131.389L204.487 152.308L198.846 141.731L198.141 130.158L190.385 131.071Z" fill="#016C67"/>
<path d="M256.667 208.718H248.122L251.026 218.59H253.846L255.256 215.064L261.603 217.884L267.949 217.179L274.295 215.769L275 209.423L266.538 202.795L256.667 208.718Z" fill="#F9CEBB"/>
<path d="M162.885 253.141L163.59 248.484L147.249 239.743L146.667 248.205L143.141 253.846V258.782L151.603 260.897L156.538 258.077L162.885 253.141Z" fill="#F6D4BB"/>
<path d="M173.462 249.369V263.013L176.282 267.243H183.333L189.679 260.897L193.205 252.436L191.09 248.809L173.462 249.369Z" fill="#FAD0B7"/>
<path d="M222.82 128.333L201.667 129.743L198.141 130.158L198.846 141.731L204.487 152.308L227.051 131.389L222.82 128.333Z" fill="#FAD0B8"/>
<path d="M155.128 107.885L162.885 121.987L179.103 131.154L194.615 133.974L224.936 131.154L239.038 128.333L252.436 113.526H269.359L278.526 94.4872L265.128 86.0256L255.256 92.3718L257.372 47.2436L222.115 23.9743L194.615 19.0385L170.641 26.7949L160.769 39.4872L157.244 55.7051L155.128 73.3333V107.885Z" fill="#F8D2BB"/>
<path d="M201.667 113.526L191.384 114.936L187.564 113.526" stroke="black" stroke-width="2.82051" stroke-linecap="round"/>
<path d="M149.487 52.8846L155.128 86.7308L163.59 45.1282L153.718 51.4744L149.487 49.0064V52.8846Z" fill="#016C67"/>
<path d="M160.064 23.9744L149.487 45.1282V49.0064L153.718 51.4744L163.59 45.1282L183.333 26.7949L195.32 21.859L196.026 22.1082L250.32 41.2951L272.179 21.1538L239.038 0L191.09 3.52564L160.064 23.9744Z" fill="#02B9B0"/>
<path d="M163.59 45.1282L196.026 28.9103V22.1082L195.32 21.859L183.333 26.7949L163.59 45.1282Z" fill="#298480"/>
<path d="M268.654 70.5128L289.103 55L250.32 41.2951L196.026 22.1082V28.9103L223.329 55L268.654 70.5128Z" fill="#3B918D"/>
<path d="M273.59 91.6667L289.103 55L268.654 70.5128L223.329 55L227.756 59.2308L246.09 70.5128L255.256 92.3718L266.538 87.4359L273.59 91.6667Z" fill="#016C67"/>
<path d="M289.103 55L272.179 21.1538L250.32 41.2951L289.103 55Z" fill="#298480"/>
<ellipse cx="9.69952" cy="14.7057" rx="9.69952" ry="14.7057" transform="matrix(-1 0 0 1 229.872 76.859)" fill="#D9D9D9"/>
<path d="M210.473 91.2518C210.282 98.8527 213.489 105.099 217.635 105.202C221.781 105.306 225.296 99.2286 225.487 91.6276C225.677 84.0267 222.47 77.7807 218.324 77.677C214.178 77.5732 210.663 83.6508 210.473 91.2518Z" fill="#06060D"/>
<ellipse cx="1.56444" cy="2.19021" rx="1.56444" ry="2.19021" transform="matrix(-0.964773 0.263083 0.263083 0.964773 223.97 78.892)" fill="white"/>
<ellipse cx="9.69952" cy="14.7057" rx="9.69952" ry="14.7057" transform="matrix(-1 0 0 1 181.923 76.859)" fill="#D9D9D9"/>
<path d="M162.524 91.2518C162.334 98.8527 165.54 105.099 169.686 105.202C173.832 105.306 177.348 99.2286 177.538 91.6276C177.728 84.0267 174.521 77.7807 170.375 77.677C166.23 77.5732 162.714 83.6508 162.524 91.2518Z" fill="#06060D"/>
<ellipse cx="1.56444" cy="2.19021" rx="1.56444" ry="2.19021" transform="matrix(-0.964773 0.263083 0.263083 0.964773 176.021 78.892)" fill="white"/>
<path d="M167.82 95.1922L169.231 86.0256L144.939 80.3845L143.458 90.2563L167.82 95.1922Z" fill="#A7B3C1"/>
<path d="M104.594 85.0071L143.141 92.3717L143.458 90.2563L144.939 80.3845L145.256 78.2692L108.102 69.8076L104.594 85.0071Z" fill="#9EACB7"/>
<path d="M108.59 67.6922L59.4213 54.2948L54.0517 76.3699L104.359 86.0256L104.594 85.0071L108.102 69.8076L108.59 67.6922Z" fill="#A9BDC8"/>
<path d="M144.249 75.4486L145.256 78.2692L144.939 80.3845L169.231 86.0256L167.82 81.7948L144.249 75.4486Z" fill="#C0D8E4"/>
<path d="M104.594 55.7051L108.59 67.6922L108.102 69.8076L145.256 78.2692L144.249 75.4486L141.731 68.3974L104.594 55.7051Z" fill="#C8DDE2"/>
<path d="M54.0517 36.6666L59.9359 52.1794L59.4213 54.2948L108.59 67.6922L104.594 55.7051L103.654 52.8845L54.0517 36.6666Z" fill="#DAE4E5"/>
<path d="M40.8974 95.1922L92.3718 102.244L96.0201 97.3076L104.359 86.0256L54.0517 76.3699L53.5897 78.2692L39.9304 95.0329L40.8974 95.1922Z" fill="#8890A3"/>
<path d="M104.359 86.0256L96.0201 97.3076L124.808 100.983L134.679 102.244L135.888 100.833L137.701 98.7179L143.141 92.3717L104.594 85.0071L104.359 86.0256Z" fill="#8890A3"/>
<path d="M162.179 102.244L167.82 95.1922L143.458 90.2563L143.141 92.3717L137.701 98.7179L141.932 99.7756L144.249 97.3076L145.256 92.3717H148.077L150.192 95.1922L149.487 100.833L162.179 102.244Z" fill="#8890A3"/>
<path d="M52.1795 31.7307L31.7308 26.0241L34.0846 31.7307L40.1923 46.5384L59.9359 52.1794L54.0517 36.6666L52.1795 31.7307Z" fill="#75BCC0"/>
<path d="M40.1923 46.5384L34.5513 76.8589L53.5897 78.2692L54.0517 76.3699L59.4213 54.2948L59.9359 52.1794L40.1923 46.5384Z" fill="#4A7B9B"/>
<path d="M21.859 94.9343L38.0769 97.3076L39.9304 95.0329L53.5897 78.2692L34.5513 76.8589L23.6584 92.3717L21.859 94.9343Z" fill="#436A8A"/>
<path d="M0 81.0897L9.16667 93.0769L21.859 94.9343L23.6584 92.3717L12.6923 90.2563L4.9359 78.2692V57.8204L12.6923 36.6666L21.859 28.2051L34.0846 31.7307L31.7308 26.0241L21.859 23.2692L9.16667 34.5512L0 56.4102V81.0897Z" fill="#254A64"/>
<path d="M34.5513 76.8589L40.1923 46.5384L34.0846 31.7307L21.859 28.2051L12.6923 36.6666L4.9359 57.8204V78.2692L12.6923 90.2563L23.6584 92.3717L34.5513 76.8589Z" fill="#74BFCB"/>
<path d="M23.0355 33.0272L25.6633 36.195L25.4861 42.0092L22.6075 47.064L18.7139 48.3984L16.0861 45.2306L16.2633 39.4163L19.1419 34.3615L23.0355 33.0272Z" fill="white"/>
<path d="M149.487 100.833L150.192 95.1922L148.077 92.3717H145.256L144.249 97.3076L141.932 99.7756L139.615 102.244L135.888 100.833L134.679 102.244L124.808 100.983V105.769L130.449 110L141.731 136.09L144.551 130.449L148.077 114.936L147.372 109.295L149.487 103.654V100.833Z" fill="#F3CDB2"/>
<path d="M183.333 69.8077C182.278 69.8077 180.328 68.3975 175.577 68.3975C172.712 68.3975 167.033 69.8077 165 69.8077" stroke="#668286" stroke-width="4.23077" stroke-linecap="round"/>
<path d="M230.577 69.8075C229.521 69.8075 224.751 69.1024 220 69.1024C217.135 69.1024 214.277 69.8075 212.244 69.8075" stroke="#668286" stroke-width="4.23077" stroke-linecap="round"/>
</svg>
