<svg width="306" height="319" viewBox="0 0 306 319" fill="none" xmlns="http://www.w3.org/2000/svg">
<path d="M259.007 219.743L290.694 208.032L285.872 203.899C285.321 204.45 269.57 211.017 261.763 214.232L258.795 215.61L259.007 219.743Z" fill="#20465D"/>
<path d="M285.872 203.899L292.072 200.455L290.694 188.745L287.25 183.234L279.673 180.478H275.54L255.563 190.122L257.63 192.878L258.795 215.61L261.763 214.232C269.57 211.017 285.321 204.45 285.872 203.899Z" fill="#CBDED8"/>
<path d="M151.547 287.939L140.525 283.53V299.649L130.192 309.293V313.426L148.103 315.493L164.635 311.36L170.835 286.77L151.547 287.939Z" fill="#274C77"/>
<path d="M221.121 287.939H199.077L205.966 309.293V313.426L214.232 317.559L237.653 318.248V313.426L232.831 303.782V290.005L228.992 283.095L221.121 287.939Z" fill="#274C77"/>
<path d="M208.721 257.629L188.056 259.179L194.144 280.361L196.322 287.939H199.077H221.121L228.992 283.095L230.076 282.428L229.745 280.361L225.254 252.296L208.721 257.629Z" fill="#A3CEF1"/>
<path d="M169.457 259.696L174.279 231.453H163.257L145.347 225.942L136.392 248.674L140.525 250.052L169.457 259.696Z" fill="#6096BA"/>
<path d="M230.076 250.741L219.743 228.698L184.612 231.453H183.234H174.279L180.159 255.563L181.167 259.696L188.056 259.179L208.721 257.629L225.254 252.296L230.076 250.741Z" fill="#6096BA"/>
<path d="M144.787 214.921L145.347 225.942L163.257 231.453V219.054L144.787 214.921Z" fill="#274C77"/>
<path d="M183.234 219.054H163.257V231.453H174.279H183.234V219.054Z" fill="#E4A04D"/>
<path d="M219.743 228.698V219.054H183.234V231.453H184.612L219.743 228.698Z" fill="#274C77"/>
<path fill-rule="evenodd" clip-rule="evenodd" d="M86.795 141.903L122.615 150.169L133.637 149.197L132.259 152.236L136.392 160.502L157.058 162.568L163.257 175.656L174.279 157.746L186.678 177.034L207.344 162.568L230.076 172.212L239.719 167.39L257.63 192.878V223.187H234.209L232.831 202.522L223.876 195.633L219.743 219.054H183.234H163.257L144.787 214.921L143.281 185.3H137.77H136.392L133.637 184.382L86.795 168.768V141.903ZM177.034 205.277H172.901V208.721H177.034V205.277ZM177.034 190.122H172.901V193.567H177.034V190.122ZM177.034 175.656H172.901V179.101H177.034V175.656Z" fill="#6096BA"/>
<path d="M161.191 154.302L157.058 162.568L163.257 175.656L174.279 157.746L161.191 154.302Z" fill="#274C77"/>
<path d="M207.344 162.568L208.721 152.236L174.279 157.746L186.678 177.034L207.344 162.568Z" fill="#274C77"/>
<path d="M208.721 152.236L207.344 162.568L230.076 172.212L239.719 167.39V165.324V160.502L215.61 152.236H208.721Z" fill="#DC9C3B"/>
<path d="M133.637 149.197L132.259 152.236L136.392 160.502L157.058 162.568L161.191 154.302L157.058 147.13L133.637 149.197Z" fill="#E4A04D"/>
<path d="M257.63 192.878V223.187H234.209L232.831 202.522L223.876 195.633L219.743 219.054V228.698L230.076 250.741L225.254 252.296L229.745 280.361L243.853 281.739L265.896 265.896L281.05 261.763C281.05 261.211 265.436 215.61 257.63 192.878Z" fill="#274C77"/>
<path d="M136.392 248.674L145.347 225.942L144.787 214.921L143.281 185.3H137.77L122.615 267.273L138.178 265.896L140.525 250.052L136.392 248.674Z" fill="#274C77"/>
<path d="M188.056 259.179L181.167 259.696L180.159 255.563L173.866 271.689L174.279 272.095L194.144 280.361L188.056 259.179Z" fill="#274C77"/>
<path d="M137.77 185.3H136.392L133.637 184.382L105.394 263.14L118.482 283.53L122.615 267.273L137.77 185.3Z" fill="#6096BA"/>
<path d="M239.719 167.39L257.63 192.878C265.436 215.61 281.05 261.211 281.05 261.763L286.561 286.77L301.027 273.473L305.849 250.741L243.853 168.768L239.719 165.324V167.39Z" fill="#6096BA"/>
<path d="M174.279 231.453L169.457 259.696L140.525 250.052L138.178 265.896L137.77 268.651V282.428L140.525 283.53L151.547 287.939L170.835 286.77L174.279 286.561L172.901 274.162L173.866 271.689L180.159 255.563L174.279 231.453Z" fill="#A3CEF1"/>
<path d="M92.3058 168.768L97.1277 162.568L56.5287 134.326L52.2134 139.147L92.3058 168.768Z" fill="#274C77"/>
<path d="M2.06655 96.4388L0 100.572L52.2134 139.147L56.5287 134.326L2.06655 96.4388Z" fill="#DDDDDD"/>
<path d="M66.8183 164.635L86.7949 166.701V164.635L80.5953 159.124L76.4622 152.924L70.607 149.136L67.6794 147.241L64.7518 145.347L58.5521 146.036L57.1744 152.924L66.8183 164.635Z" fill="#FCCEB6"/>
<path d="M86.7949 155.68V144.658L82.6618 139.147L73.7068 137.77L68.8849 141.214L67.6794 147.241L70.607 149.136L76.4622 148.103L86.7949 155.68Z" fill="#FCCEB6"/>
<path d="M232.831 232.831L227.32 229.387L230.764 225.598L206.655 239.719L203.899 225.254L194.255 219.054L185.989 221.121L185.3 233.52L188.745 241.097L201.144 252.119L232.448 233.52L232.831 232.831Z" fill="#20465D"/>
<path d="M252.807 232.831L252.119 223.876L234.209 221.809L230.764 225.598L227.32 229.387L232.831 232.831L232.448 233.52L229.387 239.031L246.608 240.408L252.807 232.831Z" fill="#F5D0B6"/>
<path d="M185.989 221.121L194.255 219.054L203.899 225.254L206.655 239.719L230.764 225.598L234.209 221.809L232.448 202.522L185.989 221.121Z" fill="#CBDED8"/>
<path d="M234.209 108.838L250.052 99.1942L260.385 107.704L274.162 63.3741C262.222 65.4406 237.928 69.5737 236.275 69.5737L234.209 108.838Z" fill="#274C77"/>
<path d="M208.032 42.7086L236.275 69.5737C237.928 69.5737 262.222 65.4406 274.162 63.3741L256.941 22.732L208.032 42.7086Z" fill="#2D5E96"/>
<path d="M256.941 22.732L211.477 0L205.277 22.732V43.3021L208.032 42.7086L256.941 22.732Z" fill="#6096BA"/>
<path d="M163.257 52.3525L205.277 43.3021V22.732L211.477 0L176.345 18.5989L163.257 52.3525Z" fill="#274C77"/>
<path d="M136.392 42.7086L163.257 52.3525L150.858 25.4874L123.304 22.732L119.86 59.241L136.392 42.7086Z" fill="#2D5E96"/>
<path d="M158.435 0L123.304 22.732L150.858 25.4874L163.257 52.3525L176.345 18.5989L211.477 0H158.435Z" fill="#6096BA"/>
<path d="M123.304 22.732L107.46 57.1745L119.86 59.241L123.304 22.732Z" fill="#6096BA"/>
<path d="M112.282 90.2392L119.86 59.241L107.46 57.1745C109.348 67.048 112.956 87.4838 112.282 90.2392Z" fill="#274C77"/>
<path d="M115.038 123.993L117.793 136.392L128.815 148.791L156.369 157.746H181.856L211.477 153.613L234.209 136.392H247.297L259.007 123.993L261.763 108.838L260.385 107.704L250.052 99.1942L234.209 108.838L236.275 69.5737L208.032 42.7086L205.277 43.3021L163.257 52.3525L136.392 42.7086L119.86 59.241L112.282 90.2392L115.038 102.638V123.993Z" fill="#F8D1B4"/>
<path d="M154.302 135.703C168.768 135.703 178.136 135.841 182.545 130.881" stroke="black" stroke-width="2.7554" stroke-linecap="round"/>
<path d="M177.723 88.8615L183.923 79.9064L204.588 71.6403L215.61 75.7734L177.723 88.8615Z" fill="#274C77"/>
<path d="M148.791 88.8615L121.237 75.0845L128.126 72.3291L145.347 81.2841L148.791 88.8615Z" fill="#274C77"/>
<ellipse cx="12.8597" cy="19.497" rx="12.8597" ry="19.497" transform="matrix(-1 0 0 1 208.032 86.7949)" fill="#D9D9D9"/>
<path d="M182.313 105.877C182.061 115.954 186.312 124.235 191.809 124.373C197.306 124.51 201.966 116.453 202.219 106.375C202.471 96.2978 198.219 88.0169 192.722 87.8793C187.226 87.7417 182.565 95.7995 182.313 105.877Z" fill="#06060D"/>
<ellipse cx="2.07415" cy="2.90381" rx="2.07415" ry="2.90381" transform="matrix(-0.964773 0.263083 0.263083 0.964773 200.207 89.49)" fill="white"/>
<ellipse cx="12.8597" cy="19.497" rx="12.8597" ry="19.497" transform="matrix(-1 0 0 1 150.169 86.7949)" fill="#D9D9D9"/>
<path d="M124.45 105.877C124.197 115.954 128.449 124.235 133.946 124.373C139.442 124.51 144.103 116.453 144.355 106.375C144.608 96.2978 140.356 88.0169 134.859 87.8793C129.362 87.7417 124.702 95.7995 124.45 105.877Z" fill="#06060D"/>
<ellipse cx="2.07415" cy="2.90381" rx="2.07415" ry="2.90381" transform="matrix(-0.964773 0.263083 0.263083 0.964773 142.344 89.49)" fill="white"/>
</svg>
